<?xml version="1.0" encoding="UTF-8"?>
<svg version="1.1" xmlns="http://www.w3.org/2000/svg" width="96" height="96">
<path d="M0 0 C2.96222274 2.58000045 2.99509905 3.94854002 3.375 7.9375 C3.14142677 12.80660352 1.67245048 15.46188289 -1.9453125 18.7890625 C-3.36709797 20.02739178 -4.80414345 21.24847747 -6.2578125 22.44921875 C-8.10452313 23.90009216 -8.10452313 23.90009216 -9 26 C-5.45481116 24.60240095 -5.45481116 24.60240095 -2 23 C3.2751364 22.43881528 3.2751364 22.43881528 5.9375 24.5 C7.52053328 28.22478418 7.17743365 31.24152536 6 35 C0.01008312 47.21431448 -11.98084626 55.39871247 -24.31640625 60.32421875 C-35.23302154 63.86373565 -48.15616876 65.44756771 -58.875 60.4140625 C-63.16760411 57.55758697 -66.69099489 53.61801022 -69 49 C-70.25678138 37.45033823 -67.86101826 29.6277739 -61.0546875 20.34765625 C-48.51783526 5.33581658 -19.49746299 -11.61550986 0 0 Z M-28 22 C-28 22.99 -28 23.98 -28 25 C-25.24293584 25.86382428 -25.24293584 25.86382428 -22 26 C-19.13034253 24.18911155 -19.13034253 24.18911155 -17 22 C-17.33 21.01 -17.66 20.02 -18 19 C-22.36016811 18.70271581 -24.8813507 18.76140265 -28 22 Z " fill="#E2A750" transform="translate(79,18)"/>
<path d="M0 0 C0.93297347 2.49542301 1.1771908 3.59014997 0.1015625 6.078125 C-8.65858888 18.96342704 -21.17193861 27.4789467 -36.28125 31.33984375 C-46.16109506 33.09372381 -57.29074466 33.74746814 -66 28 C-70.3975567 24.12788665 -73.16889967 20.89978627 -74 15 C-71.84419981 17.07880733 -70.0130841 18.97987061 -68.375 21.5 C-63.42591514 26.70956301 -57.35702327 28.16110113 -50.29296875 28.47509766 C-33.50914682 28.67968057 -19.05971191 22.34114374 -6.84375 10.921875 C-3.64350765 7.58602916 -1.47595273 4.42785818 0 0 Z " fill="#7A5B2E" transform="translate(84,49)"/>
<path d="M0 0 C0.66 2.97 1.32 5.94 2 9 C-2.47406443 12.49195273 -5.30910967 13.65664119 -11 13 C-13 11 -13 11 -13.375 8.125 C-12.92056457 4.33803807 -11.93500208 3.33073695 -9 1 C-6.04335481 -0.4783226 -3.25770263 -0.06032783 0 0 Z " fill="#E1B12A" transform="translate(37,61)"/>
<path d="M0 0 C2 2 2 2 2.5 4.8125 C1.9254321 8.47537036 0.76138674 9.89154128 -2.203125 12.09375 C-5.16413324 13.58712807 -7.77851895 13.37899777 -11 13 C-12 12 -12 12 -12.375 8.75 C-12 5 -12 5 -9.625 2.125 C-5.87026949 -0.91454375 -4.63063923 -1.27342579 0 0 Z " fill="#7CB919" transform="translate(28,46)"/>
<path d="M0 0 C1.9375 1.1875 1.9375 1.1875 3 3 C3 6.52196048 2.00571823 7.99243176 -0.125 10.8125 C-3.70371709 13.53543691 -5.60126228 13.58096536 -10 13 C-10.66 12.34 -11.32 11.68 -12 11 C-11.92290713 6.83698517 -11.62578976 4.69730859 -8.8125 1.5625 C-5.51347538 -0.27029145 -3.71713859 -0.56565153 0 0 Z " fill="#C81F0C" transform="translate(59,57)"/>
<path d="M0 0 C0.66 0.66 1.32 1.32 2 2 C1.875 5 1.875 5 1 8 C-1.0625 9.375 -1.0625 9.375 -3 10 C-3 10.66 -3 11.32 -3 12 C-9.0546875 12.1953125 -9.0546875 12.1953125 -11 12 C-11.66 11.34 -12.32 10.68 -13 10 C-12.86895515 6.39626668 -12.74035058 3.91803472 -10.4375 1.0625 C-6.77126065 -0.53560433 -3.99114942 -0.32186689 0 0 Z " fill="#148CD6" transform="translate(41,30)"/>
<path d="M0 0 C0.7734375 -0.00773437 1.546875 -0.01546875 2.34375 -0.0234375 C4.99234674 0.46597712 5.90609754 1.23271309 7.5 3.375 C7.42489386 6.37924557 6.91666081 7.87153485 5 10.1875 C1.33058333 11.93047292 -2.50873956 12.16092387 -6.5 11.375 C-8.5 8.375 -8.5 8.375 -8.3125 5.875 C-6.83491359 1.32858028 -4.72304594 -0.04723046 0 0 Z " fill="#7E4BE6" transform="translate(56.5,19.625)"/>
<path d="M0 0 C0.93297347 2.49542301 1.1771908 3.59014997 0.1015625 6.078125 C-6.4956767 15.78200065 -15.20058059 23.21647339 -26 28 C-26.99 27.67 -27.98 27.34 -29 27 C-25.9291502 24.33859684 -22.76562041 22.2542322 -19.25 20.25 C-11.06320639 15.4112384 -3.09995662 9.29986986 0 0 Z " fill="#715530" transform="translate(84,49)"/>
<path d="M0 0 C1.32 0.33 2.64 0.66 4 1 C4.33 3.31 4.66 5.62 5 8 C0.52593557 11.49195273 -2.30910967 12.65664119 -8 12 C-10 10 -10 10 -10.125 6.875 C-10.08375 5.92625 -10.0425 4.9775 -10 4 C-9.34 3.67 -8.68 3.34 -8 3 C-7.34 4.98 -6.68 6.96 -6 9 C-2.18186553 8.72459296 -2.18186553 8.72459296 1 7 C1.19149081 3.36805359 1.19149081 3.36805359 0 0 Z " fill="#996224" transform="translate(34,62)"/>
<path d="M0 0 C3.125 -0.1875 3.125 -0.1875 6 0 C6.04241723 2.33294775 6.04092937 4.66702567 6 7 C5 8 5 8 1.9375 8.0625 C0.968125 8.041875 -0.00125 8.02125 -1 8 C-1.625 5.6875 -1.625 5.6875 -2 3 C-1.34 2.01 -0.68 1.02 0 0 Z " fill="#85D322" transform="translate(19,49)"/>
<path d="M0 0 C1.32 0.33 2.64 0.66 4 1 C3.75 3.875 3.75 3.875 3 7 C0.9375 8.375 0.9375 8.375 -1 9 C-1 9.66 -1 10.32 -1 11 C-7.0546875 11.1953125 -7.0546875 11.1953125 -9 11 C-11 9 -11 9 -11.125 6.375 C-11.08375 5.59125 -11.0425 4.8075 -11 4 C-10.62875 4.66 -10.2575 5.32 -9.875 6 C-8.09105222 8.35303045 -8.09105222 8.35303045 -4.8125 8.25 C-3.4203125 8.12625 -3.4203125 8.12625 -2 8 C-1.34 5.36 -0.68 2.72 0 0 Z " fill="#1D75A9" transform="translate(39,31)"/>
<path d="M0 0 C1.4540625 0.0309375 1.4540625 0.0309375 2.9375 0.0625 C2.9375 2.0425 2.9375 4.0225 2.9375 6.0625 C0.9460944 6.44383299 -1.05529077 6.77575582 -3.0625 7.0625 C-4.0625 6.0625 -4.0625 6.0625 -4.1875 3.5625 C-4.00295237 -0.12845252 -3.76342282 0.07680455 0 0 Z " fill="#D51302" transform="translate(54.0625,59.9375)"/>
<path d="M0 0 C0.33 0 0.66 0 1 0 C1.33 1.65 1.66 3.3 2 5 C4.3015411 5.77802187 4.3015411 5.77802187 7 6 C9.94636211 4.31636451 11.08971364 2.86542954 13 0 C13.33 1.65 13.66 3.3 14 5 C11.31273081 7.80410698 9.12347685 8.2663485 5.375 8.375 C3.0234375 8.3984375 3.0234375 8.3984375 1 8 C-1 5 -1 5 -0.625 2.3125 C-0.41875 1.549375 -0.2125 0.78625 0 0 Z " fill="#63398A" transform="translate(49,23)"/>
<path d="M0 0 C0.165 0.598125 0.33 1.19625 0.5 1.8125 C2.81276204 5.18527798 6.19891337 5.8331548 10 7 C8 9 8 9 4.5 9.25 C1 9 1 9 -1 7 C-0.625 3.375 -0.625 3.375 0 0 Z " fill="#AB442C" transform="translate(48,61)"/>
<path d="M0 0 C1 3 1 3 0.0625 5.25 C-2.32621935 8.43495913 -5.01944714 10.8041584 -8.0625 13.3515625 C-9.80059031 14.83034095 -11.41234927 16.36273519 -13 18 C-12.50903308 13.74495339 -9.87589314 10.96401243 -7 8 C-6.113125 7.29875 -5.22625 6.5975 -4.3125 5.875 C-2.01338018 4.01084879 -1.06791863 2.71833833 0 0 Z " fill="#8F6431" transform="translate(81,27)"/>
<path d="M0 0 C0.33 1.32 0.66 2.64 1 4 C0.34 3.67 -0.32 3.34 -1 3 C-4.97288453 2.55856839 -6.53956856 2.67969987 -9.875 5 C-10.57625 5.66 -11.2775 6.32 -12 7 C-11.72776186 3.64239623 -11.41629629 2.35682539 -8.8125 0.125 C-5.41866747 -1.23253301 -3.49402134 -0.89381941 0 0 Z " fill="#906A34" transform="translate(62,35)"/>
<path d="M0 0 C2.05859375 -0.3984375 2.05859375 -0.3984375 4.4375 -0.375 C5.21996094 -0.38273437 6.00242187 -0.39046875 6.80859375 -0.3984375 C9.47346589 0.08608471 10.40156432 0.8426342 12 3 C11.6875 5.1875 11.6875 5.1875 11 7 C10.01 6.67 9.02 6.34 8 6 C7.67 5.01 7.34 4.02 7 3 C4.03 3 1.06 3 -2 3 C-1.34 2.01 -0.68 1.02 0 0 Z " fill="#7542C3" transform="translate(52,20)"/>
<path d="M0 0 C1 2 1 2 1 6 C3.91652174 6.16681109 3.91652174 6.16681109 7 6 C7.66 5.34 8.32 4.68 9 4 C9.99 4.33 10.98 4.66 12 5 C8.97574144 7.93261437 7.52452339 8.95628972 3.25 9.3125 C0 9 0 9 -1 8 C-1.125 4.5 -1.125 4.5 -1 1 C-0.67 0.67 -0.34 0.34 0 0 Z " fill="#646822" transform="translate(17,50)"/>
<path d="M0 0 C0 0.99 0 1.98 0 3 C-1.65 3.66 -3.3 4.32 -5 5 C-4.67 5.99 -4.34 6.98 -4 8 C-2.35 8.33 -0.7 8.66 1 9 C1 9.33 1 9.66 1 10 C-1.875 10.125 -1.875 10.125 -5 10 C-7 8 -7 8 -7.375 5.5625 C-7 3 -7 3 -5.1875 1.1875 C-3 0 -3 0 0 0 Z " fill="#3598CA" transform="translate(36,30)"/>
<path d="M0 0 C0 1.65 0 3.3 0 5 C-1.32 5.33 -2.64 5.66 -4 6 C-6 3 -6 3 -6 0 C-3.50907189 -1.24546405 -2.58919267 -0.7767578 0 0 Z " fill="#7F45F7" transform="translate(57,24)"/>
<path d="M0 0 C2.31 0 4.62 0 7 0 C6.67 1.65 6.34 3.3 6 5 C4.35 5 2.7 5 1 5 C0.67 3.35 0.34 1.7 0 0 Z " fill="#FACA14" transform="translate(27,65)"/>
<path d="M0 0 C1.32 0.33 2.64 0.66 4 1 C4.33 3.31 4.66 5.62 5 8 C4.01 8.66 3.02 9.32 2 10 C1.34 9.34 0.68 8.68 0 8 C0.33 7.67 0.66 7.34 1 7 C1.19149081 3.36805359 1.19149081 3.36805359 0 0 Z " fill="#B7811C" transform="translate(34,62)"/>
<path d="M0 0 C0.66 0 1.32 0 2 0 C2.625 2.8125 2.625 2.8125 3 6 C2.01 7.485 2.01 7.485 1 9 C-0.32 9 -1.64 9 -3 9 C-3 8.34 -3 7.68 -3 7 C-2.01 7 -1.02 7 0 7 C0 4.69 0 2.38 0 0 Z " fill="#B02213" transform="translate(58,59)"/>
<path d="M0 0 C1.32 0.33 2.64 0.66 4 1 C4 2.98 4 4.96 4 7 C3.01 7 2.02 7 1 7 C0.67 4.69 0.34 2.38 0 0 Z " fill="#6B931B" transform="translate(26,47)"/>
<path d="M0 0 C0.804375 1.2065625 0.804375 1.2065625 1.625 2.4375 C4.43105369 5.46508424 5.96825194 5.72510809 10 6 C10 6.33 10 6.66 10 7 C3.9453125 7.1953125 3.9453125 7.1953125 2 7 C0 5 0 5 -0.125 2.375 C-0.08375 1.59125 -0.0425 0.8075 0 0 Z " fill="#475D5F" transform="translate(28,35)"/>
<path d="M0 0 C0.99 0 1.98 0 3 0 C2.67 1.98 2.34 3.96 2 6 C1.01 6 0.02 6 -1 6 C-0.67 4.02 -0.34 2.04 0 0 Z " fill="#2B729A" transform="translate(40,32)"/>
</svg>
